<?xml version="1.0" encoding="utf-8"?>
<!-- Generator: Adobe Illustrator 24.0.1, SVG Export Plug-In . SVG Version: 6.00 Build 0)  -->
<svg version="1.1" id="Layer_1" xmlns="http://www.w3.org/2000/svg" xmlns:xlink="http://www.w3.org/1999/xlink" x="0px" y="0px"
	 viewBox="0 0 50 50" style="enable-background:new 0 0 50 50;" xml:space="preserve">
<style type="text/css">
	.st0{fill:none;stroke:#333333;stroke-width:0.75;stroke-miterlimit:10;}
</style>
<g>
	<path class="st0" d="M19.25,19.76c0-2.33,1.89-4.22,4.22-4.22s4.22,1.89,4.22,4.22l0,0v1.69c0,2.33-1.89,4.22-4.22,4.22
		s-4.22-1.89-4.22-4.22l0,0V19.76z M25.22,32.43H15.03v-2.8c2.41-1.42,5.32-2.26,8.42-2.26c0.01,0,0.02,0,0.02,0h0
		c0.5,0,0.99,0.02,1.48,0.06"/>
	<g>
		<path class="st0" d="M34.41,30.04c0.64,0.48,1.2,0.92,1.2,0.92l-0.79,1.38l-1.42-0.63l-1.32,0.77c-0.09,0.81-0.17,1.56-0.17,1.56
			h-1.57l-0.17-1.56l-1.3-0.77l-1.44,0.63l-0.79-1.38c0,0,0.54-0.44,1.19-0.92v-1.57l-1.19-0.91l0.79-1.38l1.4,0.62l1.39-0.76
			l0.11-1.57h1.57l0.11,1.56l1.37,0.77l1.42-0.63l0.79,1.38l-1.2,0.92L34.41,30.04L34.41,30.04z"/>
		<circle class="st0" cx="31.13" cy="29.25" r="1.2"/>
	</g>
</g>
</svg>
