<?xml version="1.0" encoding="utf-8"?>
<!-- Generator: Adobe Illustrator 24.0.1, SVG Export Plug-In . SVG Version: 6.00 Build 0)  -->
<svg version="1.1" id="Layer_1" xmlns="http://www.w3.org/2000/svg" xmlns:xlink="http://www.w3.org/1999/xlink" x="0px" y="0px"
	 viewBox="0 0 50 50" style="enable-background:new 0 0 50 50;" xml:space="preserve">
<path d="M15.76,21.04c-0.24,0.18-0.39,0.47-0.39,0.79v11c0,0.83,0.34,1.58,0.88,2.12c0.54,0.54,1.29,0.88,2.12,0.88h14
	c0.83,0,1.58-0.34,2.12-0.88s0.88-1.29,0.88-2.12v-11c0-0.3-0.13-0.59-0.39-0.79l-9-7c-0.36-0.28-0.86-0.29-1.23,0L15.76,21.04z
	 M29.37,33.83v-9c0-0.55-0.45-1-1-1h-6c-0.55,0-1,0.45-1,1v9h-3c-0.28,0-0.52-0.11-0.71-0.29s-0.29-0.43-0.29-0.71V22.32l8-6.22
	l8,6.22v10.51c0,0.28-0.11,0.53-0.29,0.71c-0.18,0.18-0.43,0.29-0.71,0.29H29.37z M23.37,33.83v-8h4v8H23.37z"/>
</svg>
