<?xml version="1.0" encoding="utf-8"?>
<!-- Generator: Adobe Illustrator 24.0.1, SVG Export Plug-In . SVG Version: 6.00 Build 0)  -->
<svg version="1.1" id="Layer_1" xmlns="http://www.w3.org/2000/svg" xmlns:xlink="http://www.w3.org/1999/xlink" x="0px" y="0px"
	 viewBox="0 0 50 50" style="enable-background:new 0 0 50 50;" xml:space="preserve">
<style type="text/css">
	.st0{fill:#333333;}
</style>
<path class="st0" d="M33.37,16.79c1.1,0,2,0.9,2,2l0,0v12c0,1.1-0.9,2-2,2l0,0h-16c-1.1,0-2-0.9-2-2l0,0v-12c0-1.1,0.9-2,2-2H33.37z
	 M29,25.89l6.37,4.9v-2l-5.12-3.9l5.12-4.1v-2l-10,8l-10-8v2l5.12,4.1l-5.12,3.9v2l6.37-4.9l3.63,2.9L29,25.89z"/>
</svg>
