<?xml version="1.0" encoding="utf-8"?>
<!-- Generator: Adobe Illustrator 24.0.1, SVG Export Plug-In . SVG Version: 6.00 Build 0)  -->
<svg version="1.1" id="Layer_1" xmlns="http://www.w3.org/2000/svg" xmlns:xlink="http://www.w3.org/1999/xlink" x="0px" y="0px"
	 viewBox="0 0 50 50" style="enable-background:new 0 0 50 50;" xml:space="preserve">
<path d="M35.12,20.89c0-0.21-0.17-0.38-0.38-0.38c-1.51,0-2.74-1.23-2.74-2.74v-4.68c0-0.21-0.17-0.38-0.38-0.38H28.5
	c-0.21,0-0.38,0.17-0.38,0.38v1.56c0,1.51-1.23,2.74-2.74,2.74c-1.51,0-2.74-1.23-2.74-2.74v-1.56c0-0.21-0.17-0.38-0.38-0.38h-3.12
	c-0.21,0-0.38,0.17-0.38,0.38v4.68c0,1.51-1.23,2.74-2.74,2.74c-0.21,0-0.38,0.17-0.38,0.38v2.78c0,0.66,0.26,1.3,0.71,1.77
	c-0.45,0.47-0.71,1.11-0.71,1.77v2.31c0,0.66,0.26,1.3,0.71,1.77c-0.45,0.47-0.71,1.11-0.71,1.77v3.43c0,0.21,0.17,0.38,0.38,0.38
	h18.73c0.21,0,0.38-0.17,0.38-0.38v-3.43c0-0.66-0.26-1.3-0.71-1.77c0.45-0.47,0.71-1.11,0.71-1.77v-2.31c0-0.66-0.26-1.3-0.71-1.77
	c0.45-0.47,0.71-1.11,0.71-1.77L35.12,20.89L35.12,20.89z M27.38,26.43c0,0.07-0.06,0.13-0.13,0.13h-3.76
	c-0.07,0-0.13-0.06-0.13-0.13v-1.98c0-0.07,0.06-0.13,0.13-0.13h3.76c0.07,0,0.13,0.06,0.13,0.13V26.43z M16.39,21.25
	c1.75-0.19,3.12-1.68,3.12-3.48v-4.3h2.36v1.18c0,1.8,1.37,3.29,3.12,3.48v5.43h-1.5c-0.49,0-0.89,0.4-0.89,0.89v0.61h-5.56
	c-0.42-0.34-0.66-0.85-0.66-1.39L16.39,21.25z M16.39,27.21c0-0.54,0.24-1.05,0.66-1.39h5.56v0.61c0,0.49,0.4,0.89,0.89,0.89h1.5
	v2.09h-1.5c-0.49,0-0.89,0.4-0.89,0.89v0.61h-5.56c-0.42-0.34-0.66-0.85-0.66-1.39L16.39,27.21z M27.38,32.29
	c0,0.07-0.06,0.13-0.13,0.13h-3.76c-0.07,0-0.13-0.06-0.13-0.13V30.3c0-0.07,0.06-0.13,0.13-0.13h3.76c0.07,0,0.13,0.06,0.13,0.13
	V32.29z M16.39,33.06c0-0.54,0.24-1.05,0.66-1.39h5.56v0.61c0,0.49,0.4,0.89,0.89,0.89h1.5v2.94h-8.6V33.06z M34.36,23.67
	c0,0.58-0.28,1.12-0.75,1.46c-0.1,0.07-0.16,0.19-0.16,0.31c0,0.12,0.06,0.24,0.16,0.31c0.47,0.34,0.75,0.88,0.75,1.46v2.31
	c0,0.58-0.28,1.12-0.75,1.46c-0.1,0.07-0.16,0.19-0.16,0.31c0,0.12,0.06,0.24,0.16,0.31c0.47,0.34,0.75,0.88,0.75,1.46v3.05h-8.6
	v-2.94h1.5c0.49,0,0.89-0.4,0.89-0.89v-0.61h3.48c0.21,0,0.38-0.17,0.38-0.38s-0.17-0.38-0.38-0.38h-3.48V30.3
	c0-0.49-0.4-0.89-0.89-0.89h-1.5v-2.09h1.5c0.49,0,0.89-0.4,0.89-0.89v-0.61h3.48c0.21,0,0.38-0.17,0.38-0.38s-0.17-0.38-0.38-0.38
	h-3.48v-0.61c0-0.49-0.4-0.89-0.89-0.89h-1.5v-5.43c1.75-0.19,3.12-1.68,3.12-3.48v-1.18h2.36v4.3c0,1.8,1.37,3.29,3.12,3.48
	L34.36,23.67L34.36,23.67z"/>
</svg>
