<?xml version="1.0" encoding="utf-8"?>
<!-- Generator: Adobe Illustrator 24.0.1, SVG Export Plug-In . SVG Version: 6.00 Build 0)  -->
<svg version="1.1" id="Layer_1" xmlns="http://www.w3.org/2000/svg" xmlns:xlink="http://www.w3.org/1999/xlink" x="0px" y="0px"
	 viewBox="0 0 50 50" style="enable-background:new 0 0 50 50;" xml:space="preserve">
<style type="text/css">
	.st0{fill:none;stroke:#333333;stroke-width:0.75;stroke-miterlimit:10;}
	.st1{fill:#333333;}
	.st2{fill:none;stroke:#333333;stroke-width:0.5;stroke-linecap:round;stroke-linejoin:round;stroke-miterlimit:10;}
</style>
<g>
	<path class="st0" d="M34.43,36.37h-18.1c-0.22,0-0.4-0.18-0.4-0.4v-9.03c0-0.22,0.18-0.4,0.4-0.4h18.1c0.22,0,0.4,0.18,0.4,0.4
		v9.03C34.83,36.19,34.65,36.37,34.43,36.37z"/>
	<rect x="22.78" y="25.85" class="st1" width="5.17" height="1.39"/>
	<g>
		<polygon class="st1" points="24.25,25.08 27.98,12.84 30.31,12.84 26.58,25.09 		"/>
		<polygon class="st1" points="25.03,21.23 22.48,12.84 20.14,12.84 23.88,25.09 		"/>
	</g>
	<g>
		<line class="st2" x1="19.09" y1="30.21" x2="30.67" y2="30.21"/>
		<line class="st2" x1="19.09" y1="31.89" x2="27.28" y2="31.89"/>
	</g>
</g>
</svg>
