<?xml version="1.0" encoding="utf-8"?>
<!-- Generator: Adobe Illustrator 24.0.1, SVG Export Plug-In . SVG Version: 6.00 Build 0)  -->
<svg version="1.1" id="Layer_1" xmlns="http://www.w3.org/2000/svg" xmlns:xlink="http://www.w3.org/1999/xlink" x="0px" y="0px"
	 viewBox="0 0 50 50" style="enable-background:new 0 0 50 50;" xml:space="preserve">
<style type="text/css">
	.st0{fill:none;stroke:#333333;stroke-width:0.75;stroke-miterlimit:10;}
</style>
<path class="st0" d="M32.26,22.41h-2.14v-2.85c0-3.44-1.59-5.46-4.75-5.46s-4.75,2.02-4.75,5.46v2.85h-2.38
	c-0.66,0-1.19,0.77-1.19,1.42v9.27c0,0.65,0.51,1.35,1.13,1.55l1.42,0.46c0.62,0.2,1.67,0.36,2.32,0.36h6.89
	c0.65,0,1.7-0.17,2.32-0.36l1.42-0.46c0.62-0.2,1.13-0.9,1.13-1.55v-9.27C33.69,23.18,32.92,22.41,32.26,22.41z M27.75,22.41H23
	v-3.33c0-1.72,0.95-2.61,2.38-2.61c1.43,0,2.38,0.9,2.38,2.61V22.41z"/>
</svg>
