<?xml version="1.0" encoding="utf-8"?>
<!-- Generator: Adobe Illustrator 24.0.1, SVG Export Plug-In . SVG Version: 6.00 Build 0)  -->
<svg version="1.1" id="Layer_1" xmlns="http://www.w3.org/2000/svg" xmlns:xlink="http://www.w3.org/1999/xlink" x="0px" y="0px"
	 viewBox="0 0 50 50" style="enable-background:new 0 0 50 50;" xml:space="preserve">
<style type="text/css">
	.st0{fill:none;stroke:#333333;stroke-width:0.75;stroke-miterlimit:10;}
	.st1{fill:#333333;}
</style>
<g>
	<path class="st0" d="M22.69,24.22c0-1.42,1.03-2.69,2.44-2.81c1.59-0.14,2.93,1.11,2.93,2.67l0,0l0,0.93
		c0,1.42-1.03,2.69-2.44,2.81c-1.59,0.14-2.93-1.11-2.93-2.67l0,0V24.22z M20,30.37c0-0.01,0.01-0.02,0.01-0.02
		c1.53-0.9,3.38-1.43,5.34-1.43c0,0,0.01,0,0.01,0h0c1.95,0,3.78,0.52,5.36,1.43c0.01,0.01,0.01,0.01,0.01,0.02v1.74
		c0,0.02-0.01,0.03-0.03,0.03H20.03c-0.02,0-0.03-0.01-0.03-0.03V30.37z"/>
	<path class="st0" d="M31.79,36.86H18.96c-0.38,0-0.69-0.31-0.69-0.69V17.11c0-0.38,0.31-0.69,0.69-0.69h12.83
		c0.38,0,0.69,0.31,0.69,0.69v19.06C32.48,36.55,32.17,36.86,31.79,36.86z"/>
	<path class="st1" d="M26.71,18.71h-2.67c-0.02,0-0.03-0.01-0.03-0.03v-6.31c0-0.02,0.01-0.03,0.03-0.03h2.67
		c0.02,0,0.03,0.01,0.03,0.03v6.31C26.74,18.7,26.73,18.71,26.71,18.71z"/>
</g>
</svg>
