<?xml version="1.0" encoding="utf-8"?>
<!-- Generator: Adobe Illustrator 24.0.1, SVG Export Plug-In . SVG Version: 6.00 Build 0)  -->
<svg version="1.1" id="Layer_1" xmlns="http://www.w3.org/2000/svg" xmlns:xlink="http://www.w3.org/1999/xlink" x="0px" y="0px"
	 viewBox="0 0 50 50" style="enable-background:new 0 0 50 50;" xml:space="preserve">
<style type="text/css">
	.st0{fill:#AAAAAA;}
</style>
<path class="st0" d="M16.92,24.79c1.61-3.1,4.79-5.18,8.46-5.18s6.85,2.08,8.43,5.13l0.03,0.05c-1.61,3.1-4.79,5.18-8.46,5.18
	s-6.85-2.08-8.43-5.13L16.92,24.79z M25.37,28.24c1.91,0,3.45-1.55,3.45-3.45c0-1.91-1.55-3.45-3.45-3.45l0,0
	c-1.91,0-3.45,1.55-3.45,3.45C21.92,26.7,23.47,28.24,25.37,28.24L25.37,28.24z M25.37,26.52c-0.95,0-1.73-0.77-1.73-1.73
	s0.77-1.73,1.73-1.73l0,0c0.95,0,1.73,0.77,1.73,1.73S26.33,26.52,25.37,26.52L25.37,26.52z"/>
</svg>
